# xmcd CD database file
#
# Track frame offsets:
#	150
#	17257
#	35080
#	50089
#	65469
#	86339
#	105384
#	119261
#	136385
#	152133
#	170334
#	184380
#	201657
#	218440
#	237565
#	251480
#	266941
#	283086
#	302100
#
# Disc length: 4250 seconds
#
# Revision: 2
# Processed by: cddbd v1.5.2PL0 Copyright (c) Steve Scherf et al.
# Submitted via: CDex 1.70beta2
#
DISCID=19109813
DTITLE=Country - Various - The New Voice Of American Country
DYEAR=1900
DGENRE=Country
TTITLE0=The Mavricks - Here Comes The Rain
TTITLE1=Vince Dill - I Still Believe In You
TTITLE2=Pam Tillis - In Between Dances
TTITLE3=Ray Vega - You Don't Know What Love Is
TTITLE4=Lorry Morgan - Something In Red
TTITLE5=Brooks and Dunn - Why Should I Say Goodbye
TTITLE6=Tammy Graham - A Dozen Red Roses
TTITLE7=Alan Jackson - Livin' On Love
TTITLE8=Prairie Oyster - Black Eyed Susan
TTITLE9=Ty England - Sure
TTITLE10=Martina McBride //Cry On The Shoulder Of The Road
TTITLE11=Tracy Byrd - Love Lessons
TTITLE12=Lee Roy Parnell - When A Woman Loves A Man
TTITLE13=Trisha Rainwood - Under The Rainbow
TTITLE14=Rhett Atkins - Katy Brought My Guitar Back
TTITLE15=Diamond Rio - She Misses Him On Sunday The Most
TTITLE16=Blackheak - I Sure Can Smell The Rain
TTITLE17=Mindy MccCreedy - Without Love
TTITLE18=Restless Heart - When She Cries
EXTD=
EXTT0=The Mavericks
EXTT1=Vince Gill
EXTT2=Pam Tillis
EXTT3=Ray Vega
EXTT4=Lorrie Morgan
EXTT5=Brooks and Dunn
EXTT6=Tammy Graham
EXTT7=Alan Jackson
EXTT8=Prairie Oyster
EXTT9=Ty England
EXTT10=Martina McBride
EXTT11=Tracy Byrd
EXTT12=Lee Roy Parnell
EXTT13=Trisha Yearwood
EXTT14=Rhett Akins
EXTT15=Diamond Rio
EXTT16=Blackhawk
EXTT17=Mindy McCready
EXTT18=Restless Heart
PLAYORDER=
